<?xml version="1.0" encoding="UTF-8" standalone="no"?>
<!DOCTYPE svg PUBLIC "-//W3C//DTD SVG 1.1//EN"
 "http://www.w3.org/Graphics/SVG/1.1/DTD/svg11.dtd">
<!-- Generated by graphviz version 15.1.1 (0)
 -->
<!-- Title: G Pages: 1 -->
<svg width="389pt" height="312pt"
 viewBox="0.00 0.00 389.00 312.00" xmlns="http://www.w3.org/2000/svg" xmlns:xlink="http://www.w3.org/1999/xlink">
<g id="graph0" class="graph" transform="scale(1 1) rotate(0) translate(4 307.75)">
<title>G</title>
<polygon fill="white" stroke="none" points="-4,4 -4,-307.75 385.37,-307.75 385.37,4 -4,4"/>
<!-- Moscow -->
<g id="node1" class="node">
<title>Moscow</title>
<ellipse fill="none" stroke="black" cx="198.95" cy="-285.75" rx="51.73" ry="18"/>
<text xml:space="preserve" text-anchor="middle" x="198.95" y="-281.07" font-family="Times,serif" font-size="14.00">Moscow</text>
</g>
<!-- Piter -->
<g id="node2" class="node">
<title>Piter</title>
<ellipse fill="none" stroke="black" cx="35.95" cy="-196.5" rx="35.95" ry="18"/>
<text xml:space="preserve" text-anchor="middle" x="35.95" y="-191.82" font-family="Times,serif" font-size="14.00">Piter</text>
</g>
<!-- Moscow&#45;&#45;Piter -->
<g id="edge1" class="edge">
<title>Moscow&#45;&#45;Piter</title>
<path fill="none" stroke="black" d="M148.88,-280.62C122.36,-276.31 90.5,-267.55 66.95,-249.75 55.17,-240.85 47,-226.05 42.02,-214.48"/>
<text xml:space="preserve" text-anchor="middle" x="80.45" y="-236.45" font-family="Times,serif" font-size="14.00">700</text>
</g>
<!-- Novgorod -->
<g id="node3" class="node">
<title>Novgorod</title>
<ellipse fill="none" stroke="black" cx="79.95" cy="-107.25" rx="60.15" ry="18"/>
<text xml:space="preserve" text-anchor="middle" x="79.95" y="-102.58" font-family="Times,serif" font-size="14.00">Novgorod</text>
</g>
<!-- Moscow&#45;&#45;Novgorod -->
<g id="edge2" class="edge">
<title>Moscow&#45;&#45;Novgorod</title>
<path fill="none" stroke="black" d="M175.02,-269.55C156.78,-256.85 132.26,-237.19 116.95,-214.5 98.26,-186.8 104.1,-174.75 92.95,-143.25 90.87,-137.38 88.53,-131 86.4,-125.3"/>
<text xml:space="preserve" text-anchor="middle" x="130.45" y="-191.82" font-family="Times,serif" font-size="14.00">530</text>
</g>
<!-- Nizhny -->
<g id="node4" class="node">
<title>Nizhny</title>
<ellipse fill="none" stroke="black" cx="198.95" cy="-196.5" rx="46.47" ry="18"/>
<text xml:space="preserve" text-anchor="middle" x="198.95" y="-191.82" font-family="Times,serif" font-size="14.00">Nizhny</text>
</g>
<!-- Moscow&#45;&#45;Nizhny -->
<g id="edge4" class="edge">
<title>Moscow&#45;&#45;Nizhny</title>
<path fill="none" stroke="black" d="M198.95,-267.51C198.95,-252.22 198.95,-229.99 198.95,-214.7"/>
<text xml:space="preserve" text-anchor="middle" x="212.45" y="-236.45" font-family="Times,serif" font-size="14.00">400</text>
</g>
<!-- Kazan -->
<g id="node5" class="node">
<title>Kazan</title>
<ellipse fill="none" stroke="black" cx="244.95" cy="-107.25" rx="41.74" ry="18"/>
<text xml:space="preserve" text-anchor="middle" x="244.95" y="-102.58" font-family="Times,serif" font-size="14.00">Kazan</text>
</g>
<!-- Moscow&#45;&#45;Kazan -->
<g id="edge5" class="edge">
<title>Moscow&#45;&#45;Kazan</title>
<path fill="none" stroke="black" d="M216.94,-268.58C230.06,-255.48 246.74,-235.77 253.95,-214.5 264.12,-184.48 262.16,-174.51 256.95,-143.25 255.96,-137.29 254.08,-130.99 252.09,-125.4"/>
<text xml:space="preserve" text-anchor="middle" x="274.72" y="-191.82" font-family="Times,serif" font-size="14.00">800</text>
</g>
<!-- Rostov -->
<g id="node7" class="node">
<title>Rostov</title>
<ellipse fill="none" stroke="black" cx="335.95" cy="-18" rx="45.42" ry="18"/>
<text xml:space="preserve" text-anchor="middle" x="335.95" y="-13.32" font-family="Times,serif" font-size="14.00">Rostov</text>
</g>
<!-- Moscow&#45;&#45;Rostov -->
<g id="edge8" class="edge">
<title>Moscow&#45;&#45;Rostov</title>
<path fill="none" stroke="black" d="M228.43,-270.68C249.81,-258.83 277.42,-239.76 291.95,-214.5 325.96,-155.4 333.68,-72.2 335.44,-36.44"/>
<text xml:space="preserve" text-anchor="middle" x="337.5" y="-147.2" font-family="Times,serif" font-size="14.00">1100</text>
</g>
<!-- Piter&#45;&#45;Novgorod -->
<g id="edge3" class="edge">
<title>Piter&#45;&#45;Novgorod</title>
<path fill="none" stroke="black" d="M44.43,-178.68C52.18,-163.33 63.56,-140.75 71.34,-125.32"/>
<text xml:space="preserve" text-anchor="middle" x="75.39" y="-147.2" font-family="Times,serif" font-size="14.00">180</text>
</g>
<!-- Nizhny&#45;&#45;Kazan -->
<g id="edge6" class="edge">
<title>Nizhny&#45;&#45;Kazan</title>
<path fill="none" stroke="black" d="M207.82,-178.68C215.91,-163.33 227.82,-140.75 235.95,-125.32"/>
<text xml:space="preserve" text-anchor="middle" x="239.57" y="-147.2" font-family="Times,serif" font-size="14.00">400</text>
</g>
<!-- Samara -->
<g id="node6" class="node">
<title>Samara</title>
<ellipse fill="none" stroke="black" cx="222.95" cy="-18" rx="49.63" ry="18"/>
<text xml:space="preserve" text-anchor="middle" x="222.95" y="-13.32" font-family="Times,serif" font-size="14.00">Samara</text>
</g>
<!-- Kazan&#45;&#45;Samara -->
<g id="edge7" class="edge">
<title>Kazan&#45;&#45;Samara</title>
<path fill="none" stroke="black" d="M239.25,-89.26C237.43,-83.57 235.5,-77.17 233.95,-71.25 230.9,-59.59 228.11,-46.3 226.1,-36.04"/>
<text xml:space="preserve" text-anchor="middle" x="247.45" y="-57.95" font-family="Times,serif" font-size="14.00">350</text>
</g>
<!-- Kazan&#45;&#45;Rostov -->
<g id="edge9" class="edge">
<title>Kazan&#45;&#45;Rostov</title>
<path fill="none" stroke="black" d="M259.43,-90.3C269.2,-79.74 282.54,-65.73 294.95,-54 301.89,-47.44 309.81,-40.56 316.82,-34.64"/>
<text xml:space="preserve" text-anchor="middle" x="308.45" y="-57.95" font-family="Times,serif" font-size="14.00">980</text>
</g>
</g>
</svg>
